<?xml version="1.0" standalone="no"?>
<!DOCTYPE svg PUBLIC "-//W3C//DTD SVG 20010904//EN"
 "http://www.w3.org/TR/2001/REC-SVG-20010904/DTD/svg10.dtd">
<svg version="1.0" xmlns="http://www.w3.org/2000/svg"
 width="642.000000pt" height="642.000000pt" viewBox="0 0 642.000000 642.000000"
 preserveAspectRatio="xMidYMid meet">
<metadata>
Created by potrace 1.14, written by Peter Selinger 2001-2017
</metadata>
<g transform="translate(0.000000,642.000000) scale(0.100000,-0.100000)"
fill="#000000" stroke="none">
<path d="M1010 6335 c-140 -28 -341 -114 -465 -198 -124 -84 -301 -277 -381
-413 -48 -81 -101 -216 -130 -329 l-29 -110 0 -2010 c0 -1929 1 -2013 19
-2090 28 -120 51 -188 102 -294 116 -246 310 -455 534 -577 77 -42 244 -113
282 -119 17 -3 35 -8 40 -11 5 -3 20 -7 33 -10 14 -2 37 -6 53 -9 15 -3 72 -8
127 -11 70 -5 106 -11 120 -23 18 -15 19 -15 6 1 -12 16 -7 17 68 16 76 -1 87
-5 82 -31 -1 -5 3 -6 8 -2 6 3 8 12 5 19 -4 10 16 13 91 14 86 1 96 -1 91 -16
-5 -15 -5 -15 6 -1 10 12 36 16 116 17 94 1 103 0 98 -16 -6 -16 -5 -16 7 0
10 12 29 16 75 17 35 0 60 -3 58 -7 -3 -5 5 -9 17 -9 16 -2 18 0 8 7 -9 5 16
8 65 8 59 0 84 -4 99 -17 18 -15 19 -15 6 2 -13 16 -9 17 58 17 41 0 71 -4 71
-10 0 -5 5 -10 11 -10 5 0 7 5 3 11 -4 7 1 9 12 7 11 -2 18 -10 16 -17 -1 -7
2 -10 8 -6 6 3 8 10 5 14 -2 4 8 8 23 7 16 -1 27 -7 27 -15 0 -8 7 -16 15 -18
9 -3 11 -1 5 4 -13 10 -18 33 -7 33 4 0 14 -6 21 -12 11 -10 13 -10 7 -1 -4 7
-2 13 3 13 6 0 11 -5 11 -11 0 -6 5 -7 12 -2 20 12 151 12 167 -1 11 -8 13 -8
7 2 -4 7 -1 12 9 12 10 0 13 -5 9 -12 -6 -10 -4 -10 8 0 17 14 39 13 50 -3 5
-7 8 -7 8 0 0 13 80 13 99 1 9 -6 12 -5 8 1 -4 6 4 11 18 11 15 0 22 -5 18
-12 -3 -6 0 -6 8 2 23 21 33 13 13 -10 l-19 -23 26 23 c28 24 45 29 33 10 -5
-9 -2 -9 9 1 13 10 17 10 17 1 0 -10 3 -10 15 0 12 10 15 10 15 -1 0 -9 3 -10
8 -4 10 13 42 18 42 6 0 -5 -6 -12 -12 -14 -10 -4 -10 -6 0 -6 7 -1 15 5 18
13 6 16 90 20 100 5 3 -5 11 -9 17 -9 7 0 6 4 -3 10 -10 6 -5 9 18 8 25 -1 32
-5 27 -16 -5 -13 -3 -13 11 -1 22 18 107 20 100 3 -3 -8 1 -11 9 -7 8 3 13 9
10 13 -7 12 37 9 53 -3 8 -6 12 -6 12 2 0 12 36 11 57 -2 7 -4 22 -2 33 5 17
11 22 11 30 -2 5 -8 6 -18 4 -22 -3 -4 0 -8 6 -8 6 0 9 8 6 18 -7 20 17 24 43
7 10 -5 12 -4 7 3 -4 7 -1 12 9 12 11 0 14 -7 11 -24 -4 -20 -1 -23 12 -19 9
4 11 8 5 10 -7 3 -9 11 -6 19 4 12 8 12 21 2 12 -10 14 -10 8 0 -5 8 0 12 13
12 13 0 21 -7 21 -17 1 -17 1 -17 11 0 9 15 13 16 27 5 12 -10 14 -10 8 0 -4
7 -1 12 9 12 9 0 14 -4 10 -9 -3 -5 0 -13 6 -17 7 -4 9 -3 5 4 -3 6 -2 13 4
17 5 3 10 1 10 -4 0 -6 8 -11 18 -11 14 0 15 2 2 10 -8 5 -10 10 -4 10 5 0 16
-6 23 -12 11 -11 12 -10 7 0 -6 9 1 12 28 10 20 -1 36 -7 36 -13 0 -6 3 -6 8
1 9 15 75 16 66 2 -5 -7 -2 -8 7 -3 33 21 68 3 60 -30 -2 -5 1 -6 6 -2 8 8 9
12 12 38 1 8 7 7 18 -2 11 -10 14 -10 9 -1 -4 6 -2 12 3 12 6 0 11 -6 11 -12
0 -8 3 -9 8 -3 11 15 32 17 47 5 8 -7 16 -7 19 -2 3 5 17 10 31 10 14 0 22 -5
18 -11 -4 -6 -1 -7 8 -1 24 15 43 14 63 -4 11 -9 16 -12 13 -5 -12 20 13 26
34 7 16 -14 19 -15 14 -2 -5 13 5 15 72 15 43 1 83 -4 90 -9 7 -6 14 -5 18 2
3 5 24 10 47 10 37 0 39 -1 27 -17 -13 -17 -13 -17 7 -1 16 14 39 18 111 18
64 0 93 -4 96 -12 4 -9 6 -9 6 -1 1 8 51 12 179 13 255 1 339 12 475 64 135
50 204 85 314 158 342 228 551 588 583 1001 4 56 7 955 6 1997 l-1 1895 -22
80 c-30 111 -80 249 -115 320 -171 341 -502 592 -881 666 -94 18 -168 19
-2210 18 -1707 -1 -2124 -3 -2177 -14z m3637 -1627 c-3 -8 -6 -5 -6 6 -1 11 2
17 5 13 3 -3 4 -12 1 -19z m-1890 -420 c-3 -8 -6 -5 -6 6 -1 11 2 17 5 13 3
-3 4 -12 1 -19z m0 -110 c-3 -8 -6 -5 -6 6 -1 11 2 17 5 13 3 -3 4 -12 1 -19z
m0 -55 c-3 -10 -5 -4 -5 12 0 17 2 24 5 18 2 -7 2 -21 0 -30z m0 -345 c-1 -62
-3 -14 -3 107 0 121 2 172 3 113 2 -59 2 -158 0 -220z m570 -334 c-3 -3 -12
-4 -19 -1 -8 3 -5 6 6 6 11 1 17 -2 13 -5z m271 -1 c-49 -2 -127 -2 -175 0
-49 1 -9 3 87 3 96 0 136 -2 88 -3z m-1591 -475 c-3 -8 -6 -5 -6 6 -1 11 2 17
5 13 3 -3 4 -12 1 -19z m0 -230 c-1 -40 -3 -8 -3 72 0 80 2 112 3 73 2 -40 2
-106 0 -145z m750 -555 c-1 -93 -3 -17 -3 167 0 184 2 260 3 168 2 -93 2 -243
0 -335z m0 -220 c-3 -10 -5 -2 -5 17 0 19 2 27 5 18 2 -10 2 -26 0 -35z m0
-45 c-3 -8 -6 -5 -6 6 -1 11 2 17 5 13 3 -3 4 -12 1 -19z m0 -70 c-2 -13 -4
-5 -4 17 -1 22 1 32 4 23 2 -10 2 -28 0 -40z m0 -165 c-2 -27 -3 -5 -3 47 0
52 1 74 3 48 2 -27 2 -69 0 -95z m0 -105 c-3 -8 -6 -5 -6 6 -1 11 2 17 5 13 3
-3 4 -12 1 -19z m-750 -105 c-2 -16 -4 -3 -4 27 0 30 2 43 4 28 2 -16 2 -40 0
-55z"/>
<path d="M1818 133 c6 -2 18 -2 25 0 6 3 1 5 -13 5 -14 0 -19 -2 -12 -5z"/>
<path d="M2076 128 c3 -5 10 -6 15 -3 13 9 11 12 -6 12 -8 0 -12 -4 -9 -9z"/>
<path d="M2661 124 c0 -11 3 -14 6 -6 3 7 2 16 -1 19 -3 4 -6 -2 -5 -13z"/>
<path d="M3406 132 c-3 -5 1 -9 9 -9 8 0 12 4 9 9 -3 4 -7 8 -9 8 -2 0 -6 -4
-9 -8z"/>
<path d="M1762 110 c7 -10 14 -18 15 -16 6 6 -9 36 -18 36 -5 0 -4 -9 3 -20z"/>
<path d="M2590 120 c0 -5 7 -7 15 -4 8 4 15 8 15 10 0 2 -7 4 -15 4 -8 0 -15
-4 -15 -10z"/>
<path d="M3310 118 c0 -11 12 -10 30 2 12 7 10 9 -8 7 -12 0 -22 -5 -22 -9z"/>
<path d="M4027 119 c7 -7 15 -10 18 -7 3 3 -2 9 -12 12 -14 6 -15 5 -6 -5z"/>
<path d="M4279 113 c-13 -16 -12 -17 4 -4 16 13 21 21 13 21 -2 0 -10 -8 -17
-17z"/>
<path d="M4438 123 c7 -3 16 -2 19 1 4 3 -2 6 -13 5 -11 0 -14 -3 -6 -6z"/>
<path d="M4477 113 c3 -7 6 -13 8 -13 2 0 5 6 8 13 3 8 -1 14 -8 14 -7 0 -11
-6 -8 -14z"/>
<path d="M3486 112 c-3 -5 1 -9 9 -9 8 0 12 4 9 9 -3 4 -7 8 -9 8 -2 0 -6 -4
-9 -8z"/>
<path d="M3872 96 c1 -14 5 -23 9 -20 7 4 0 44 -7 44 -2 0 -3 -11 -2 -24z"/>
<path d="M2633 95 c0 -8 4 -12 9 -9 5 3 6 10 3 15 -9 13 -12 11 -12 -6z"/>
<path d="M1516 87 c3 -10 9 -15 12 -12 3 3 0 11 -7 18 -10 9 -11 8 -5 -6z"/>
<path d="M4148 93 c7 -3 16 -2 19 1 4 3 -2 6 -13 5 -11 0 -14 -3 -6 -6z"/>
<path d="M1735 81 c-3 -5 -2 -12 3 -15 5 -3 9 1 9 9 0 17 -3 19 -12 6z"/>
</g>
</svg>
